<svg width="24" height="24" viewBox="0 0 24 24" fill="none" xmlns="http://www.w3.org/2000/svg">
<path fill-rule="evenodd" clip-rule="evenodd" d="M8 2.75C7.66848 2.75 7.35054 2.8817 7.11612 3.11612C6.8817 3.35054 6.75 3.66848 6.75 4V21.25H17.25V4C17.25 3.66848 17.1183 3.35054 16.8839 3.11612C16.6495 2.8817 16.3315 2.75 16 2.75H8ZM18.75 8.25V4C18.75 3.27065 18.4603 2.57118 17.9445 2.05546C17.4288 1.53973 16.7293 1.25 16 1.25H8C7.27065 1.25 6.57118 1.53973 6.05546 2.05546C5.53973 2.57118 5.25 3.27065 5.25 4V11.25H4C3.27065 11.25 2.57118 11.5397 2.05546 12.0555C1.53973 12.5712 1.25 13.2707 1.25 14V20C1.25 20.7293 1.53973 21.4288 2.05546 21.9445C2.57118 22.4603 3.27065 22.75 4 22.75H20C20.7293 22.75 21.4288 22.4603 21.9445 21.9445C22.4603 21.4288 22.75 20.7293 22.75 20V11C22.75 10.2707 22.4603 9.57118 21.9445 9.05546C21.4288 8.53973 20.7293 8.25 20 8.25H18.75ZM18.75 9.75V21.25H20C20.3315 21.25 20.6495 21.1183 20.8839 20.8839C21.1183 20.6495 21.25 20.3315 21.25 20V11C21.25 10.6685 21.1183 10.3505 20.8839 10.1161C20.6495 9.8817 20.3315 9.75 20 9.75H18.75ZM5.25 12.75H4C3.66848 12.75 3.35054 12.8817 3.11612 13.1161C2.8817 13.3505 2.75 13.6685 2.75 14V20C2.75 20.3315 2.8817 20.6495 3.11612 20.8839C3.35054 21.1183 3.66848 21.25 4 21.25H5.25V12.75ZM9.25 6C9.25 5.58579 9.58579 5.25 10 5.25H14C14.4142 5.25 14.75 5.58579 14.75 6C14.75 6.41421 14.4142 6.75 14 6.75H10C9.58579 6.75 9.25 6.41421 9.25 6ZM9.25 10C9.25 9.58579 9.58579 9.25 10 9.25H14C14.4142 9.25 14.75 9.58579 14.75 10C14.75 10.4142 14.4142 10.75 14 10.75H10C9.58579 10.75 9.25 10.4142 9.25 10ZM9.25 14C9.25 13.5858 9.58579 13.25 10 13.25H14C14.4142 13.25 14.75 13.5858 14.75 14C14.75 14.4142 14.4142 14.75 14 14.75H10C9.58579 14.75 9.25 14.4142 9.25 14ZM9.25 18C9.25 17.5858 9.58579 17.25 10 17.25H14C14.4142 17.25 14.75 17.5858 14.75 18C14.75 18.4142 14.4142 18.75 14 18.75H10C9.58579 18.75 9.25 18.4142 9.25 18Z" fill="white"/>
</svg>
