<svg width="24" height="24" viewBox="0 0 24 24" fill="none" xmlns="http://www.w3.org/2000/svg">
<path fill-rule="evenodd" clip-rule="evenodd" d="M2.05546 5.05546C2.57118 4.53973 3.27065 4.25 4 4.25H20C20.7293 4.25 21.4288 4.53973 21.9445 5.05546C22.4603 5.57118 22.75 6.27065 22.75 7V9C22.75 9.41421 22.4142 9.75 22 9.75C21.4033 9.75 20.831 9.98705 20.409 10.409C19.9871 10.831 19.75 11.4033 19.75 12C19.75 12.5967 19.9871 13.169 20.409 13.591C20.831 14.0129 21.4033 14.25 22 14.25C22.4142 14.25 22.75 14.5858 22.75 15V17C22.75 17.7293 22.4603 18.4288 21.9445 18.9445C21.4288 19.4603 20.7293 19.75 20 19.75H4C3.27065 19.75 2.57118 19.4603 2.05546 18.9445C1.53973 18.4288 1.25 17.7293 1.25 17V15C1.25 14.5858 1.58579 14.25 2 14.25C2.59674 14.25 3.16903 14.0129 3.59099 13.591C4.01295 13.169 4.25 12.5967 4.25 12C4.25 11.4033 4.01295 10.831 3.59099 10.409C3.16903 9.98705 2.59674 9.75 2 9.75C1.58579 9.75 1.25 9.41421 1.25 9V7C1.25 6.27065 1.53973 5.57118 2.05546 5.05546ZM13.75 18.25V17C13.75 16.5858 13.4142 16.25 13 16.25C12.5858 16.25 12.25 16.5858 12.25 17V18.25H4C3.66848 18.25 3.35054 18.1183 3.11612 17.8839C2.8817 17.6495 2.75 17.3315 2.75 17V15.6742C3.46508 15.5283 4.12786 15.1754 4.65165 14.6517C5.35491 13.9484 5.75 12.9946 5.75 12C5.75 11.0054 5.35491 10.0516 4.65165 9.34835C4.12786 8.82456 3.46508 8.47173 2.75 8.32575V7C2.75 6.66848 2.8817 6.35054 3.11612 6.11612C3.35054 5.8817 3.66848 5.75 4 5.75H12.25V7C12.25 7.41421 12.5858 7.75 13 7.75C13.4142 7.75 13.75 7.41421 13.75 7V5.75H20C20.3315 5.75 20.6495 5.8817 20.8839 6.11612C21.1183 6.35054 21.25 6.66848 21.25 7V8.32575C20.5349 8.47173 19.8721 8.82456 19.3483 9.34835C18.6451 10.0516 18.25 11.0054 18.25 12C18.25 12.9946 18.6451 13.9484 19.3483 14.6517C19.8721 15.1754 20.5349 15.5283 21.25 15.6742V17C21.25 17.3315 21.1183 17.6495 20.8839 17.8839C20.6495 18.1183 20.3315 18.25 20 18.25H13.75ZM13 10.25C13.4142 10.25 13.75 10.5858 13.75 11V13C13.75 13.4142 13.4142 13.75 13 13.75C12.5858 13.75 12.25 13.4142 12.25 13V11C12.25 10.5858 12.5858 10.25 13 10.25Z" fill="white"/>
</svg>
