<svg width="24" height="24" viewBox="0 0 24 24" fill="none" xmlns="http://www.w3.org/2000/svg">
<path fill-rule="evenodd" clip-rule="evenodd" d="M4 6.75C3.30964 6.75 2.75 7.30964 2.75 8V16C2.75 16.6904 3.30964 17.25 4 17.25H14C14.6904 17.25 15.25 16.6904 15.25 16V13.0102C15.2499 13.003 15.2499 12.9957 15.25 12.9884V10.5142C15.2498 10.5052 15.2498 10.4962 15.25 10.4872V8C15.25 7.30964 14.6904 6.75 14 6.75H4ZM16.75 9.19408V8C16.75 6.48122 15.5188 5.25 14 5.25H4C2.48122 5.25 1.25 6.48122 1.25 8V16C1.25 17.5188 2.48122 18.75 4 18.75H14C15.5188 18.75 16.75 17.5188 16.75 16V14.4014L20.8075 17.1064C20.9957 17.2317 21.2144 17.3035 21.4403 17.3143C21.6661 17.3251 21.8907 17.2745 22.09 17.1677C22.2893 17.061 22.456 16.9022 22.5722 16.7083C22.6884 16.5143 22.7499 16.2925 22.75 16.0664V7.87022C22.75 7.8703 22.75 7.87015 22.75 7.87022C22.75 7.65036 22.6921 7.43415 22.5819 7.24384C22.4718 7.05347 22.3134 6.89553 22.1227 6.78597C21.9319 6.67641 21.7157 6.61911 21.4958 6.61986C21.2758 6.62061 21.06 6.67937 20.87 6.79022L16.75 9.19408ZM16.75 10.9307V12.5986L21.25 15.5986V8.30516L16.75 10.9307Z" fill="white"/>
</svg>
